HIERARCHY
ROOT Hips
{
	OFFSET 15.585500 22.159004 44.358299
	CHANNELS 6 Xposition Yposition Zposition Zrotation Xrotation Yrotation
	JOINT Chest
	{
		OFFSET -0.128500 0.160400 6.566002
		CHANNELS 6 Xposition Yposition Zposition Zrotation Xrotation Yrotation
		JOINT Chest2
		{
			OFFSET 0.000000 0.000000 3.554802
			CHANNELS 6 Xposition Yposition Zposition Zrotation Xrotation Yrotation
			JOINT Neck
			{
				OFFSET 0.000000 0.000000 8.267998
				CHANNELS 6 Xposition Yposition Zposition Zrotation Xrotation Yrotation
				JOINT Head
				{
					OFFSET 0.000000 0.000002 2.173897
					CHANNELS 6 Xposition Yposition Zposition Zrotation Xrotation Yrotation
					End Site
					{
						OFFSET 0.000000 0.000000 7.718697
					}
				}
			}
			JOINT LeftCollar
			{
				OFFSET 2.057500 0.117599 5.946301
				CHANNELS 6 Xposition Yposition Zposition Zrotation Xrotation Yrotation
				JOINT LeftShoulder
				{
					OFFSET 4.957699 0.000000 0.000000
					CHANNELS 6 Xposition Yposition Zposition Zrotation Xrotation Yrotation
					JOINT LeftElbow
					{
						OFFSET 0.000000 0.000000 -8.465500
						CHANNELS 6 Xposition Yposition Zposition Zrotation Xrotation Yrotation
						JOINT LeftWrist
						{
							OFFSET 0.000000 -0.000002 -14.594898
							CHANNELS 6 Xposition Yposition Zposition Zrotation Xrotation Yrotation
							End Site
							{
								OFFSET 0.000000 0.000000 -2.173901
							}
						}
					}
				}
			}
			JOINT RightCollar
			{
				OFFSET -3.048500 -0.728800 6.604099
				CHANNELS 6 Xposition Yposition Zposition Zrotation Xrotation Yrotation
				JOINT RightShoulder
				{
					OFFSET -3.710299 0.000000 0.000000
					CHANNELS 6 Xposition Yposition Zposition Zrotation Xrotation Yrotation
					JOINT RightElbow
					{
						OFFSET 0.000000 0.000000 -10.450901
						CHANNELS 6 Xposition Yposition Zposition Zrotation Xrotation Yrotation
						JOINT RightWrist
						{
							OFFSET 0.000000 0.000000 -12.539200
							CHANNELS 6 Xposition Yposition Zposition Zrotation Xrotation Yrotation
							End Site
							{
								OFFSET 0.000000 -0.000002 -2.173901
							}
						}
					}
				}
			}
		}
	}
	JOINT LeftHip
	{
		OFFSET 2.442599 -0.601400 -2.767502
		CHANNELS 6 Xposition Yposition Zposition Zrotation Xrotation Yrotation
		JOINT LeftKnee
		{
			OFFSET 0.000000 -0.000002 -17.033703
			CHANNELS 6 Xposition Yposition Zposition Zrotation Xrotation Yrotation
			JOINT LeftAnkle
			{
				OFFSET 0.000000 -0.000002 -19.318800
				CHANNELS 6 Xposition Yposition Zposition Zrotation Xrotation Yrotation
				End Site
				{
					OFFSET 0.000000 -8.281900 0.000000
				}
			}
		}
	}
	JOINT RightHip
	{
		OFFSET -3.126200 -0.601400 -2.283501
		CHANNELS 6 Xposition Yposition Zposition Zrotation Xrotation Yrotation
		JOINT RightKnee
		{
			OFFSET 0.000000 -0.000002 -16.919401
			CHANNELS 6 Xposition Yposition Zposition Zrotation Xrotation Yrotation
			JOINT RightAnkle
			{
				OFFSET 0.000000 -0.000002 -18.035900
				CHANNELS 6 Xposition Yposition Zposition Zrotation Xrotation Yrotation
				End Site
				{
					OFFSET 0.000000 -9.230099 0.000000
				}
			}
		}
	}
}
MOTION
Frames: 4
Frame Time: 0.041667
22.287300 25.881605 39.590000 6.075946 15.621307 -4.228089 -0.128501 0.160399 6.566004 -6.402877 13.934783 2.195638 0.000001 -0.000000 3.554806 0.793781 -6.452794 -0.496914 0.000001 0.000008 8.267998 0.342682 -13.125678 2.632854 -0.000002 0.000003 2.173888 1.082212 -5.205438 -0.889915 2.057501 0.117605 5.946311 -21.419010 1.821789 6.378523 4.957699 0.000004 0.000003 -18.716274 3.827568 -33.217348 0.000001 0.000000 -8.465509 -36.066544 -115.571309 -54.583791 0.000004 0.000000 -14.594896 6.786135 -47.073452 29.386479 -3.048502 -0.728795 6.604104 31.502615 1.911002 -8.886505 -3.710295 0.000003 0.000006 18.748135 -6.723795 43.723951 -0.000000 0.000013 -10.450901 -43.321933 -70.723665 -45.306124 0.000002 0.000008 -12.539190 -52.631577 -5.645124 -34.419673 2.442596 -0.601397 -2.767499 42.617601 -35.380694 33.692749 -0.000001 -0.000002 -17.033699 -86.484026 42.347692 50.840045 0.000002 -0.000000 -19.318800 38.366518 4.436490 18.903916 -3.126199 -0.601404 -2.283501 -96.259236 -49.755719 -50.624747 0.000002 -0.000000 -16.919399 110.100505 37.366333 -75.331051 -0.000001 -0.000003 -18.035900 -8.824219 48.066336 -66.474188
22.319096 25.896206 39.523899 5.944250 15.734621 -4.174174 -0.128501 0.160394 6.566007 -6.266514 14.104085 2.134006 0.000000 -0.000007 3.554805 0.768292 -6.453940 -0.504330 -0.000000 0.000004 8.267999 0.351484 -12.917975 2.637116 0.000001 0.000005 2.173896 1.118517 -5.203600 -0.943750 2.057505 0.117602 5.946304 -21.491412 1.918113 6.457864 4.957697 0.000005 0.000012 -18.659998 3.733163 -33.259183 -0.000002 0.000002 -8.465500 -37.822739 -115.552567 -56.466854 0.000005 -0.000003 -14.594899 8.517526 -46.978396 30.156231 -3.048501 -0.728801 6.604098 31.584571 2.018053 -9.043848 -3.710292 0.000003 0.000000 18.701290 -6.674315 43.663456 0.000003 0.000004 -10.450903 -41.932731 -69.967741 -43.853916 0.000003 0.000004 -12.539198 -52.864045 -5.764822 -35.283548 2.442596 -0.601398 -2.767502 42.986065 -35.521819 34.088156 -0.000001 -0.000002 -17.033699 -87.269682 42.265743 51.410130 0.000001 0.000001 -19.318800 38.745546 4.272218 19.265571 -3.126200 -0.601407 -2.283505 -97.148219 -49.542641 -51.406900 0.000002 0.000000 -16.919395 110.706302 37.196978 -75.623732 -0.000001 -0.000007 -18.035900 -8.516211 48.156577 -66.959008
22.353397 25.910501 39.458801 5.795351 15.840892 -4.117601 -0.128499 0.160397 6.566008 -6.114100 14.275303 2.072921 0.000001 -0.000001 3.554806 0.743108 -6.452270 -0.511057 -0.000002 -0.000002 8.268002 0.359110 -12.702214 2.642619 0.000004 0.000003 2.173896 1.153622 -5.201863 -0.999887 2.057505 0.117600 5.946313 -21.563440 2.013082 6.534796 4.957700 0.000003 0.000005 -18.609241 3.643053 -33.294426 -0.000005 -0.000007 -8.465506 -39.606430 -115.717584 -58.203300 0.000003 -0.000004 -14.594901 9.867620 -46.561608 30.677692 -3.048501 -0.728802 6.604103 31.665211 2.130392 -9.194512 -3.710305 0.000001 0.000000 18.647262 -6.554377 43.610638 -0.000000 0.000005 -10.450894 -40.962345 -69.180493 -42.777519 0.000000 0.000012 -12.539192 -52.727961 -6.012549 -36.070393 2.442600 -0.601392 -2.767499 43.337677 -35.657614 34.462679 0.000000 -0.000005 -17.033703 -87.986292 42.192336 51.946550 0.000002 -0.000000 -19.318802 39.108495 4.121571 19.597577 -3.126196 -0.601402 -2.283502 -98.009683 -49.325167 -52.167936 0.000003 -0.000003 -16.919397 111.302557 37.034450 -75.910497 0.000001 -0.000005 -18.035900 -8.194476 48.245478 -67.452278
22.389696 25.924408 39.395103 5.633987 15.941142 -4.059930 -0.128499 0.160401 6.566006 -5.950257 14.447363 2.012501 -0.000003 -0.000002 3.554810 0.719640 -6.447808 -0.516933 -0.000002 0.000004 8.267998 0.364714 -12.478348 2.650068 0.000001 0.000003 2.173906 0.801322 -5.061541 -0.434376 2.057500 0.117605 5.946305 -21.634587 2.105084 6.607472 4.957698 0.000001 0.000009 -18.564082 3.556362 -33.320870 0.000001 0.000002 -8.465505 -41.782907 -115.989494 -60.447686 0.000001 -0.000014 -14.594901 11.237980 -46.209935 31.443712 -3.048503 -0.728798 6.604099 31.742689 2.244502 -9.336017 -3.710299 0.000000 0.000006 18.658571 -6.434244 43.538710 0.000000 0.000013 -10.450904 -40.118574 -68.324472 -41.764250 0.000000 0.000003 -12.539191 -52.568927 -6.254959 -36.849588 2.442598 -0.601394 -2.767498 43.674439 -35.788118 34.817473 -0.000004 -0.000002 -17.033705 -88.634026 42.128825 52.449511 0.000002 -0.000002 -19.318802 39.450326 3.984187 19.899230 -3.126197 -0.601402 -2.283502 -98.854475 -49.100488 -52.914258 0.000003 0.000001 -16.919397 111.893088 36.882984 -76.192604 -0.000000 -0.000003 -18.035898 -7.856761 48.332789 -67.956107
